<svg width="300" height="300" viewBox="0 0 300 300" fill="none" xmlns="http://www.w3.org/2000/svg">
<circle cx="150" cy="150" r="150" fill="#90EE90"/>
<line x1="32.5" y1="56.9972" x2="33.5221" y2="241.997" stroke="#008000"/>
<line x1="62.5" y1="56.9972" x2="63.5221" y2="241.997" stroke="#008000"/>
<line x1="47.5" y1="56.9972" x2="48.5221" y2="241.997" stroke="#008000"/>
<line x1="161.5" y1="56.9972" x2="162.522" y2="241.997" stroke="#008000"/>
<line x1="237.5" y1="56.9972" x2="238.522" y2="241.997" stroke="#008000"/>
<line x1="252.5" y1="56.9972" x2="253.522" y2="241.997" stroke="#008000"/>
<line x1="131.5" y1="56.9972" x2="132.522" y2="241.997" stroke="#008000"/>
<line x1="146.5" y1="56.9972" x2="147.522" y2="241.997" stroke="#008000"/>
<line x1="266.5" y1="56.9972" x2="267.522" y2="241.997" stroke="#008000"/>
<line x1="32" y1="56.5" x2="266" y2="56.5" stroke="#008000"/>
<line x1="32" y1="68.5" x2="266" y2="68.5" stroke="#008000"/>
<line x1="32" y1="81.5" x2="266" y2="81.5" stroke="#008000"/>
<line x1="33" y1="215.5" x2="267" y2="215.5" stroke="#008000"/>
<line x1="33" y1="228.5" x2="267" y2="228.5" stroke="#008000"/>
<line x1="33" y1="241.5" x2="267" y2="241.5" stroke="#008000"/>
<line x1="32.326" y1="81.6209" x2="132.326" y2="167.621" stroke="#008000"/>
<line x1="63.351" y1="56.6439" x2="132.351" y2="124.644" stroke="#008000"/>
<line x1="237.336" y1="57.3704" x2="162.336" y2="125.37" stroke="#008000"/>
<line x1="266.319" y1="82.3853" x2="162.319" y2="168.385" stroke="#008000"/>
<line x1="33.3343" y1="56.6282" x2="132.334" y2="145.628" stroke="#008000"/>
<line x1="266.325" y1="57.3799" x2="162.325" y2="146.38" stroke="#008000"/>
<line x1="62.6318" y1="241.662" x2="130.632" y2="167.662" stroke="#008000"/>
<line x1="32.6501" y1="241.643" x2="130.65" y2="145.643" stroke="#008000"/>
<line x1="32.6616" y1="215.632" x2="131.662" y2="124.632" stroke="#008000"/>
<line x1="237.651" y1="242.358" x2="161.651" y2="168.358" stroke="#008000"/>
<line x1="265.661" y1="242.367" x2="161.661" y2="146.367" stroke="#008000"/>
<line x1="265.671" y1="216.376" x2="161.671" y2="125.376" stroke="#008000"/>
</svg>
